<svg width="1067" height="1260" viewBox="0 0 1067 1260" fill="none" xmlns="http://www.w3.org/2000/svg">
<g filter="url(#filter0_f_23_5238)">
<ellipse cx="663.5" cy="313.431" rx="203.5" ry="112.679" fill="#A7AEF9"/>
</g>
<g filter="url(#filter1_f_23_5238)">
<path fill-rule="evenodd" clip-rule="evenodd" d="M514.828 282.982C599.442 311.334 675.044 352.482 716.085 403.027C757.399 453.908 756.97 503.821 726.261 543.376C692.862 586.395 639.234 627.15 546.343 621.663C454.803 616.255 373.244 563.39 297.005 518.018C219.317 471.784 131.335 423.005 120.432 368.191C108.74 309.406 159.88 262.23 242.573 244.364C319.587 227.725 421.912 251.848 514.828 282.982Z" fill="url(#paint0_angular_23_5238)" fill-opacity="0.6"/>
</g>
<g opacity="0.97" filter="url(#filter2_f_23_5238)">
<path d="M229.867 1008.94C166.199 904.562 288.16 836.965 444.137 760.27C600.113 683.575 611.202 414.53 762.509 662.585C826.177 766.964 765.082 904.44 609.106 981.134C425.027 1030.7 293.535 1113.32 229.867 1008.94Z" fill="url(#paint1_angular_23_5238)" fill-opacity="0.6"/>
</g>
<g filter="url(#filter3_f_23_5238)">
<path fill-rule="evenodd" clip-rule="evenodd" d="M473.072 755.243C398.149 800.521 316.881 831.773 247.216 832.322C177.086 832.874 132.129 803.513 114.174 758.071C94.6476 708.649 88.945 645.776 147.976 581.147C206.148 517.459 301.495 488.677 386.96 459.418C474.049 429.604 569.433 393.755 625.425 417.695C685.475 443.37 698.441 508.164 666.497 578.938C636.746 644.852 555.346 705.522 473.072 755.243Z" fill="url(#paint2_angular_23_5238)" fill-opacity="0.6"/>
</g>
<defs>
<filter id="filter0_f_23_5238" x="260" y="0.752441" width="807" height="625.357" filterUnits="userSpaceOnUse" color-interpolation-filters="sRGB">
<feFlood flood-opacity="0" result="BackgroundImageFix"/>
<feBlend mode="normal" in="SourceGraphic" in2="BackgroundImageFix" result="shape"/>
<feGaussianBlur stdDeviation="100" result="effect1_foregroundBlur_23_5238"/>
</filter>
<filter id="filter1_f_23_5238" x="18.7744" y="138.939" width="829.531" height="583.222" filterUnits="userSpaceOnUse" color-interpolation-filters="sRGB">
<feFlood flood-opacity="0" result="BackgroundImageFix"/>
<feBlend mode="normal" in="SourceGraphic" in2="BackgroundImageFix" result="shape"/>
<feGaussianBlur stdDeviation="50" result="effect1_foregroundBlur_23_5238"/>
</filter>
<filter id="filter2_f_23_5238" x="12.6306" y="359.791" width="974.767" height="899.462" filterUnits="userSpaceOnUse" color-interpolation-filters="sRGB">
<feFlood flood-opacity="0" result="BackgroundImageFix"/>
<feBlend mode="normal" in="SourceGraphic" in2="BackgroundImageFix" result="shape"/>
<feGaussianBlur stdDeviation="100" result="effect1_foregroundBlur_23_5238"/>
</filter>
<filter id="filter3_f_23_5238" x="0.633789" y="309.864" width="782.807" height="622.465" filterUnits="userSpaceOnUse" color-interpolation-filters="sRGB">
<feFlood flood-opacity="0" result="BackgroundImageFix"/>
<feBlend mode="normal" in="SourceGraphic" in2="BackgroundImageFix" result="shape"/>
<feGaussianBlur stdDeviation="50" result="effect1_foregroundBlur_23_5238"/>
</filter>
<radialGradient id="paint0_angular_23_5238" cx="0" cy="0" r="1" gradientUnits="userSpaceOnUse" gradientTransform="translate(430.696 425.986) rotate(110.397) scale(162.185 323.127)">
<stop stop-color="#A7AEF9"/>
<stop offset="0.333333" stop-color="#DDCCF8"/>
<stop offset="0.666667" stop-color="#F5C9D9"/>
<stop offset="1" stop-color="#CEBBFA"/>
</radialGradient>
<radialGradient id="paint1_angular_23_5238" cx="0" cy="0" r="1" gradientUnits="userSpaceOnUse" gradientTransform="translate(495.795 835.118) rotate(-121.382) scale(181.779 317.543)">
<stop stop-color="#FF72B6"/>
<stop offset="0.333333" stop-color="#F5C9D9"/>
<stop offset="0.666667" stop-color="#97E1D4"/>
<stop offset="1" stop-color="#8359E3"/>
</radialGradient>
<radialGradient id="paint2_angular_23_5238" cx="0" cy="0" r="1" gradientUnits="userSpaceOnUse" gradientTransform="translate(392.511 610.59) rotate(-128.928) scale(166.774 314.235)">
<stop stop-color="#A7AEF9"/>
<stop offset="0.333333" stop-color="#DDCCF8"/>
<stop offset="0.666667" stop-color="#F5C9D9"/>
<stop offset="1" stop-color="#CEBBFA"/>
</radialGradient>
</defs>
</svg>
