<svg width="20" height="21" viewBox="0 0 20 21" fill="none" xmlns="http://www.w3.org/2000/svg">
<path d="M19.9587 10.2456C19.9587 9.51343 19.8927 8.81284 19.7703 8.13916H10.2937V11.9988L15.7514 12C15.5301 13.2842 14.8177 14.3789 13.7261 15.1087V17.6128H16.9749C18.8718 15.869 19.9587 13.2912 19.9587 10.2456Z" fill="#4285F4"/>
<path d="M13.7273 15.1088C12.8229 15.7146 11.6584 16.069 10.296 16.069C7.66427 16.069 5.43172 14.3076 4.63219 11.9333H1.28101V14.5158C2.94129 17.7883 6.35371 20.0339 10.296 20.0339C13.0208 20.0339 15.3098 19.1439 16.976 17.6117L13.7273 15.1088Z" fill="#34A853"/>
<path d="M4.31657 10.0175C4.31657 9.35087 4.42843 8.70643 4.63214 8.10058V5.51813H1.28096C0.594473 6.87134 0.208252 8.39883 0.208252 10.0175C0.208252 11.6362 0.59565 13.1637 1.28096 14.5169L4.63214 11.9345C4.42843 11.3286 4.31657 10.6842 4.31657 10.0175Z" fill="#FABB05"/>
<path d="M10.296 3.96491C11.7832 3.96491 13.115 4.47368 14.1665 5.46783L17.0455 2.61052C15.2969 0.992982 13.0172 0 10.296 0C6.35488 0 2.94129 2.24561 1.28101 5.51812L4.63219 8.10058C5.43172 5.72631 7.66427 3.96491 10.296 3.96491Z" fill="#E94235"/>
</svg>
