<svg width="36" height="23" viewBox="0 0 36 23" fill="none" xmlns="http://www.w3.org/2000/svg">
<path d="M2.95112 10.6725V17.7485H0.690308V0.274841H6.68382C8.2028 0.274841 9.49806 0.777768 10.5578 1.78361C11.6411 2.78946 12.1828 4.01753 12.1828 5.46782C12.1828 6.9532 11.6411 8.18127 10.5578 9.17542C9.50983 10.1696 8.21457 10.6608 6.68382 10.6608H2.95112V10.6725ZM2.95112 2.42689V8.52045H6.73092C7.62582 8.52045 8.37943 8.21635 8.96818 7.61986C9.56871 7.02337 9.87486 6.29823 9.87486 5.47951C9.87486 4.6725 9.56871 3.95905 8.96818 3.36256C8.37943 2.74268 7.6376 2.43858 6.73092 2.43858H2.95112V2.42689Z" fill="#5F6368"/>
<path d="M18.0939 5.39764C19.7659 5.39764 21.0847 5.84209 22.0503 6.73098C23.0158 7.61986 23.4986 8.83624 23.4986 10.3801V17.7485H21.3438V16.0877H21.2496C20.3193 17.4561 19.0712 18.1345 17.5169 18.1345C16.1863 18.1345 15.0794 17.7485 14.1845 16.9649C13.2896 16.1813 12.8422 15.2105 12.8422 14.0409C12.8422 12.8011 13.3132 11.8187 14.2552 11.0935C15.1972 10.3567 16.4571 9.99413 18.0232 9.99413C19.3656 9.99413 20.4724 10.2397 21.332 10.731V10.2164C21.332 9.43273 21.0259 8.77776 20.4018 8.22805C19.7777 7.67834 19.0476 7.40934 18.2116 7.40934C16.9517 7.40934 15.9508 7.93565 15.2207 8.99998L13.2307 7.76021C14.3258 6.18127 15.9508 5.39764 18.0939 5.39764ZM15.1736 14.076C15.1736 14.6608 15.4209 15.152 15.9272 15.538C16.4218 15.9239 17.0105 16.1228 17.6817 16.1228C18.6355 16.1228 19.4833 15.7719 20.2251 15.0701C20.967 14.3684 21.3438 13.5497 21.3438 12.6023C20.6373 12.0526 19.6599 11.7719 18.4 11.7719C17.4815 11.7719 16.7162 11.9941 16.1039 12.4269C15.4798 12.883 15.1736 13.4327 15.1736 14.076Z" fill="#5F6368"/>
<path d="M35.7918 5.78363L28.2558 23H25.9243L28.7268 16.9766L23.7577 5.78363H26.2187L29.7983 14.3684H29.8454L33.3308 5.78363H35.7918Z" fill="#5F6368"/>
</svg>
